<svg width="1282" height="1437" viewBox="0 0 1282 1437" fill="none" xmlns="http://www.w3.org/2000/svg">
<path d="M4.02195 2C4.02195 25.3914 1.66469 49.5493 2.04062 73.4061C2.66263 112.879 21.6141 151.606 39.2456 185.616C53.1788 212.491 74.036 234.188 95.1632 255.469C112.076 272.506 127.977 289.996 149.1 301.817C206.03 333.676 273.02 348.712 336.886 357.256C351.124 359.161 367.501 361.517 381.466 356.924C398.762 351.234 410.664 336.784 422.083 323.327C443.203 298.44 458.008 269.73 455.325 235.955C453.35 211.08 448.076 194.261 427.587 180.072C407.85 166.404 381.806 165.082 358.68 163.218C338.579 161.598 310.824 157.009 291.315 164.105C271.485 171.318 255.311 187.043 242.883 203.578C233.336 216.279 221.115 228.112 216.025 243.494C208.56 266.05 202.626 291.179 202.155 314.901C201.894 328.061 199.749 341.073 200.284 354.263C200.949 370.687 207.346 386.401 213.603 401.386C223.279 424.562 243.251 444.17 261.595 460.595C302.639 497.345 352.222 512.449 406.673 512.93C466.16 513.456 524.795 508.273 577.508 478.558C593.842 469.35 610.622 462.765 626.16 451.947C641.525 441.25 654.048 428.171 667.768 415.579C686.221 398.644 704.264 377.472 725.227 363.687C745.546 350.326 767.714 341.27 791.051 334.859C811.908 329.129 831.485 329.315 852.913 329.315C871.534 329.315 885.931 329.828 899.144 343.729C913.446 358.776 922.584 379.231 927.323 399.169C938.007 444.116 917.988 479.6 877.789 499.847C865.271 506.152 851.016 513.068 837.282 506.056C813.651 493.991 784.157 469.362 772.779 444.629C759.542 415.855 738.498 366.709 760.891 336.855C790.26 297.699 836.496 294.545 882.192 291.838C922.85 289.429 968.669 305.429 1003.05 326.21C1055.24 357.75 1091.49 417.554 1108.06 475.231C1114.07 496.148 1120.55 519.391 1120.17 541.426C1119.98 552.664 1112.44 562.304 1106.19 571.031C1093.04 589.421 1075.91 603.715 1057.65 616.713C1017.58 645.24 971.849 664.945 928.644 688.119C866.081 721.675 804.981 771.842 810.865 850.668C813.966 892.218 843.678 917.61 874.267 942.032C900.602 963.058 942.51 989.762 977.296 973.3C1008.95 958.32 1047.59 912.392 1027.49 876.17C1010.24 845.088 977.393 834.166 945.155 826.718C919.801 820.86 891.96 821.384 874.267 842.684C841.35 882.312 809.98 923.749 778.283 964.43C736.437 1018.13 696.464 1068.2 637.828 1104.36C612.429 1120.02 586.497 1132.48 557.694 1140.39C523.503 1149.79 486.686 1148.42 451.583 1147.16C394.02 1145.09 312.154 1129.64 296.599 1063.56C287.434 1024.62 295.59 982.182 331.382 959.994C364.297 939.591 416.356 941.08 450.922 956.003C485.755 971.04 509.343 995.28 536.34 1020.76C560.228 1043.3 570.325 1066.4 578.168 1097.71C585.86 1128.41 593.954 1158.53 600.843 1189.51C612.402 1241.49 640.957 1290.6 682.078 1324.79C719.119 1355.58 757.997 1373.95 803.6 1388.65C834.52 1398.62 863.69 1407.35 896.062 1410.61C950.647 1416.11 1006.78 1409.33 1061.61 1412.6C1096.66 1414.69 1132.07 1410.66 1167.06 1413.49C1185.73 1415 1203.77 1419.51 1221.88 1424.02C1241.05 1428.8 1261.07 1430.6 1280 1435" stroke="#248DDA" stroke-width="3" stroke-linecap="round" stroke-dasharray="8 10"/>
</svg>
